<svg xmlns="http://www.w3.org/2000/svg" viewBox="0 0 894.6 364.2"><defs><style>.cls-1{fill:#004b73;}</style></defs><g id="Layer_2" data-name="Layer 2"><g id="Layer_2-2" data-name="Layer 2"><path class="cls-1" d="M346.3,235.4c0,12.8,8.3,19.6,19.6,19.6,19.2,0,47-25.6,61.6-42.5,0,16.9,10.6,29.7,25.2,29.7,8.3,0,17.7-4,28.4-12-3.7,7-5.8,11.8-5.8,13.8s3.4,5.7,6,5.7,5.6-1.2,8.3-4.5c39.5-46.3,88-84.6,112-84.6,4.5,0,6.1,3,6.1,4.8,0,16.6-36.2,40.3-36.2,62.8,0,10.9,8.7,18.5,21.1,18.5,17.3,0,36-12.3,49-23a43.9,43.9,0,0,0-1.6,11.7c0,12.8,8.3,19.6,19.6,19.6,19.1,0,46.9-25.6,61.6-42.5,0,16.9,10.5,29.7,25.2,29.7s31.2-11.3,52.3-34.3c0,0,1.8-2.2,1.8-3.7A4.8,4.8,0,0,0,796,200c-1.5,0-3.4,2.3-3.4,2.3-19.5,21.8-33.4,30.1-44.3,30.1-8.3,0-15.1-5.7-15.1-19.2s7.5-21.8,7.5-24.5a6.5,6.5,0,0,0-6-6c-4.1,0-10.5,11-20.6,23-12.5,15-37.6,38.3-53.4,38.3-5.3,0-7.9-3.4-7.9-8.6,0-29.7,45.9-77.5,85.7-77.5,11.3,0,13.2,7.5,13.2,10.9s-1.2,5.3-1.2,7.9a2.9,2.9,0,0,0,3,3c2.7,0,7.9-5.2,7.9-12.8,0-9.4-7.5-19.1-26.3-19.1-31,0-68.9,28.5-86,58.2-8.2,8.7-30.2,29.8-53.1,29.8-6.8,0-10.2-3-10.2-8.7,0-17.3,35.4-41,35.4-61.7,0-9-7.5-16.1-17.3-16.1-26.3,0-73.3,36.5-103.8,69.5,14.3-22.9,26.3-38.7,39.9-54.1,2.6-3,3.7-4.5,3.7-5.6a6.2,6.2,0,0,0-6.4-6.1c-5.1,0-27.2,29.8-42.4,53.7-17.4,18.6-30.2,25.7-40.3,25.7-8.3,0-15-5.7-15-19.2s7.5-21.8,7.5-24.5a6.5,6.5,0,0,0-6-6c-4.2,0-10.6,11-20.7,23C408,220.7,382.8,244,367,244c-5.3,0-7.9-3.4-7.9-8.6,0-29.7,45.9-77.5,85.7-77.5,11.3,0,13.2,7.5,13.2,10.9s-1.1,5.3-1.1,7.9a2.9,2.9,0,0,0,3,3c2.6,0,7.9-5.2,7.9-12.8,0-9.4-7.5-19.1-26.3-19.1C400.1,147.8,346.3,198.6,346.3,235.4Z"/><path class="cls-1" d="M890.9,173.7c-14.6,27.2-35.3,50.6-58.2,71.1C728.3,339,578.4,367.1,442.1,346a691.9,691.9,0,0,1-94.3-21.5c-20.9-6.3-41.1-14-61.4-22h0c-29.3-10.7-60.8-27.8-92.7-43.4C215.1,232,235,200.8,253.8,170c105.3-4.6,195.5-71.1,195.5-129.4,0-25.2-18-40.6-48.1-40.6C339.9,0,293.3,79,244,159.1c-75.9-1.2-112.4-31.6-112.4-70.4,0-33,33.5-53.7,57.5-53.7,18.1,0,29,5.6,30.1,5.6s3.4-1.9,3.4-4.1-12.8-9.1-34.6-9.1c-29.7,0-69.9,21.1-69.9,63.2s41.3,78.2,119.2,79.7c-17.7,29.4-36.1,57.9-55.7,82.8-35.7-16.6-71.4-30.5-105.3-30.5C38.7,222.6,0,246.3,0,284.3c0,35.7,29.3,55.6,64.3,55.6,47.4,0,86.9-29.7,121.8-71.4,31.2,15,62,31.9,90.8,43.5a238.8,238.8,0,0,0,25.3,8.8h.1A713.6,713.6,0,0,0,371,342.9c143.7,39.3,307.7,27.2,431.7-60.7,38.4-27.4,74-62.4,91.9-106.8ZM405.3,10.9c18.1,0,31.6,11.3,31.6,27.1,0,55.2-85,115.8-176,120.7C307.6,82.4,351.2,10.9,405.3,10.9ZM65,328.2c-27,0-52.6-18-52.6-43.9,0-30.1,32.7-50.4,61.7-50.4,31.2,0,65.4,12.8,100,28.9C142.1,301.2,106.8,328.2,65,328.2Z"/></g></g></svg>